<svg id="charcoal" xmlns="http://www.w3.org/2000/svg" xmlns:xlink="http://www.w3.org/1999/xlink" viewBox="0 0 500 403.8"><defs><linearGradient id="linear-gradient" x1="576" y1="83.9" x2="576" y2="483.35" gradientTransform="translate(826 484.85) rotate(180)" gradientUnits="userSpaceOnUse"><stop offset="0" stop-color="#1a1a1a"/><stop offset="1" stop-color="#4d4d4d"/></linearGradient><linearGradient id="linear-gradient-2" x1="576" y1="75.57" x2="576" y2="483.35" gradientTransform="translate(826 484.85) rotate(180)" gradientUnits="userSpaceOnUse"><stop offset="0" stop-color="#c1272d"/><stop offset="1" stop-color="#f15a24"/></linearGradient></defs><title>charcoal-logo</title><g id="logo"><polygon points="2.69 1.5 134.83 1.5 250 187.53 365.17 1.5 497.31 1.5 250 400.95 2.69 1.5" style="fill:url(#linear-gradient)"/><path d="M494.61,3.5,250,398.6,5.39,3.5H134L247.45,186.76l2.55,4.12,2.55-4.12L366,3.5H494.61M500,.5H364.34L250,185.18,135.66.5H0L250,404.3,500,.5Z" transform="translate(0 -0.5)" style="fill:#191919"/><polygon points="132.95 1.5 367.05 1.5 250 188 132.95 1.5" style="fill:url(#linear-gradient-2)"/><path d="M364.34,3.5,250,185.68,135.66,3.5H364.34m5.42-3H130.24l2.88,4.59L247.46,187.27l2.54,4,2.54-4L366.88,5.09,369.76.5Z" transform="translate(0 -0.5)" style="fill:#191919"/></g></svg>