<?xml version="1.0" encoding="utf-8"?>
<!-- Generator: Adobe Illustrator 15.1.0, SVG Export Plug-In . SVG Version: 6.00 Build 0)  -->
<!DOCTYPE svg PUBLIC "-//W3C//DTD SVG 1.1//EN" "http://www.w3.org/Graphics/SVG/1.1/DTD/svg11.dtd">
<svg version="1.1" id="charcoal" xmlns="http://www.w3.org/2000/svg" xmlns:xlink="http://www.w3.org/1999/xlink" x="0px" y="0px"
	 width="300px" height="300px" viewBox="0 0 300 300" enable-background="new 0 0 300 300" xml:space="preserve">
<polygon fill="#333333" points="86.759,290.262 6.918,190.144 35.413,65.299 150.786,9.739 266.16,65.299 294.653,190.144 
	214.814,290.262 "/>
<title>charcoal-logo</title>
<g>
	<path fill="#FFFFFF" d="M204.617,189.894c-3.339,14.54-9.699,25.712-19.083,33.52c-9.662,7.733-21.095,11.602-34.301,11.602
		c-11.948-0.289-21.914-3.299-29.899-9.039c-8.127-5.521-14.03-11.906-17.71-19.152c-1.113-2.368-2.12-4.626-3.021-6.777
		c-0.834-2.224-1.53-5.022-2.085-8.395c-1.042-6.31-1.562-18.434-1.562-36.367c0-18.221,0.522-30.414,1.564-36.583
		c1.111-6.171,2.812-11.155,5.105-14.958c3.683-7.245,9.589-13.7,17.719-19.369c7.989-5.738,17.961-8.677,29.912-8.822
		c14.66,0.145,26.61,4.622,35.852,13.429c9.24,8.883,15.076,19.875,17.51,32.984H180.19c-1.88-6.327-5.29-11.718-10.229-16.174
		c-5.151-4.24-11.414-6.433-18.788-6.576c-5.428,0.143-10.092,1.255-13.989,3.34c-3.967,2.16-7.168,4.853-9.602,8.088
		c-2.994,3.379-4.976,7.727-5.951,13.048c-1.113,5.605-1.669,16.137-1.669,31.592c0,15.456,0.556,25.913,1.672,31.376
		c0.973,5.465,2.957,9.884,5.951,13.264c2.437,3.235,5.64,5.859,9.608,7.872c3.898,2.372,8.563,3.556,13.994,3.556
		c12.949,0,22.626-7.149,29.032-21.458H204.617z"/>
</g>
</svg>
